<svg width="60" height="60" viewBox="0 0 60 60" fill="none" xmlns="http://www.w3.org/2000/svg">
  <!-- Forme de coeur stylisé -->
  <path d="M30 52C30 52 8 38 8 22C8 15 13 10 19 10C23 10 27 12 30 16C33 12 37 10 41 10C47 10 52 15 52 22C52 38 30 52 30 52Z" fill="#D4616B"/>
  
  <!-- Cercle central décoratif -->
  <circle cx="30" cy="28" r="12" fill="#FFB5C2"/>
  
  <!-- Petite étoile décorative -->
  <path d="M30 20L31 23L34 23L32 25L33 28L30 26L27 28L28 25L26 23L29 23L30 20Z" fill="#FFF5E6"/>
  
  <!-- Détails décoratifs (points) -->
  <circle cx="20" cy="26" r="2" fill="#FFE5AD" opacity="0.8"/>
  <circle cx="40" cy="26" r="2" fill="#FFE5AD" opacity="0.8"/>
  <circle cx="30" cy="40" r="2.5" fill="#FF8FA3" opacity="0.7"/>
</svg>